<?xml version="1.0" standalone="no"?>
<!DOCTYPE svg PUBLIC "-//W3C//DTD SVG 20010904//EN"
 "http://www.w3.org/TR/2001/REC-SVG-20010904/DTD/svg10.dtd">
<svg version="1.0" xmlns="http://www.w3.org/2000/svg"
 width="512.000000pt" height="512.000000pt" viewBox="0 0 512.000000 512.000000"
 preserveAspectRatio="xMidYMid meet">
<metadata>
Created by potrace 1.16, written by Peter Selinger 2001-2019
</metadata>
<g transform="translate(0.000000,512.000000) scale(0.100000,-0.100000)"
fill="#000000" stroke="none">
<path d="M1932 4355 c-377 -86 -786 -338 -1040 -640 -216 -257 -334 -513 -377
-817 -18 -124 -21 -654 -5 -823 47 -499 347 -980 738 -1183 164 -86 305 -118
469 -109 101 5 200 32 235 64 10 9 18 29 18 44 0 33 -15 44 -154 118 -474 254
-798 597 -919 976 -51 160 -52 171 -52 515 0 284 2 335 19 405 97 413 367 773
755 1010 50 31 176 98 279 150 104 52 201 104 215 116 59 46 72 124 26 165
-26 24 -122 28 -207 9z"/>
<path d="M2991 4356 c-30 -16 -50 -52 -51 -88 0 -42 57 -98 147 -142 43 -22
86 -46 96 -54 9 -8 17 -12 17 -9 0 6 66 -26 195 -96 90 -49 202 -123 280 -186
92 -73 220 -200 211 -209 -4 -4 -16 4 -26 18 -11 14 -20 21 -20 17 0 -4 -9 -3
-19 3 -14 7 -22 7 -27 -2 -5 -7 -3 -8 5 -4 8 5 14 0 18 -13 4 -15 9 -19 17
-12 9 8 12 2 12 -22 -1 -30 1 -32 32 -32 18 0 37 -7 42 -15 5 -8 10 -10 10 -5
-1 17 -24 41 -40 40 -18 -1 -40 14 -40 27 0 6 6 5 15 -2 8 -6 18 -9 23 -6 5 3
21 -8 36 -24 14 -17 23 -30 20 -30 -3 0 4 -8 17 -19 19 -15 21 -22 11 -33 -9
-12 -9 -15 3 -15 8 0 11 5 8 10 -19 31 18 -9 42 -45 16 -24 40 -61 55 -83 28
-40 74 -128 71 -133 -1 -1 6 -16 14 -32 9 -17 13 -36 9 -42 -5 -7 -3 -8 6 -3
10 6 12 3 8 -13 -4 -12 -3 -20 2 -17 16 10 75 -213 65 -249 -4 -14 -3 -17 3
-8 15 22 22 -92 22 -363 0 -252 -6 -349 -20 -340 -5 3 -6 -3 -3 -14 6 -23 -30
-146 -67 -228 -36 -79 -131 -241 -166 -282 -23 -28 -28 -30 -38 -16 -10 15
-12 14 -12 -4 0 -11 4 -17 8 -15 4 3 8 1 8 -4 0 -13 -120 -142 -132 -142 -6 0
-6 6 2 15 6 8 9 19 5 25 -10 17 15 41 36 35 14 -5 17 -2 14 13 -2 10 1 25 6
33 7 10 8 5 5 -14 -4 -24 -2 -27 9 -17 8 6 11 19 8 27 -5 11 -3 14 6 8 10 -6
11 -3 2 13 -14 26 -14 35 -1 27 6 -3 10 -2 10 4 0 5 -9 9 -19 8 -15 -1 -17 -5
-10 -18 11 -22 12 -32 1 -25 -11 7 -42 -30 -34 -40 4 -4 -6 -4 -23 -1 -16 4
-24 4 -17 1 17 -8 15 -27 -3 -21 -11 5 -12 1 -5 -19 13 -33 13 -37 -2 -28 -7
4 -10 4 -6 -1 4 -4 2 -15 -5 -23 -10 -13 -9 -14 2 -8 9 6 12 5 9 -5 -3 -8 -14
-13 -26 -12 -11 1 -26 -5 -34 -15 -12 -15 -11 -16 5 -3 38 30 24 2 -22 -43
-48 -47 -84 -57 -59 -16 8 12 16 16 23 10 7 -6 11 -2 12 10 1 11 11 29 22 42
12 12 19 24 16 26 -6 6 -45 -38 -45 -51 0 -5 -7 -6 -16 -3 -8 3 -12 2 -9 -4 8
-13 -8 -13 -21 0 -16 16 -12 -34 4 -53 18 -21 -11 -45 -32 -27 -10 7 -21 8
-32 2 -15 -8 -15 -9 0 -15 10 -4 15 -3 11 3 -3 6 -2 10 4 10 5 0 12 -4 16 -9
12 -21 -324 -239 -347 -225 -6 4 -8 3 -4 -4 8 -13 -27 -26 -73 -27 -24 0 -35
-5 -37 -17 -1 -11 3 -15 13 -11 11 4 11 8 3 13 -7 4 -1 7 14 7 14 0 26 -1 26
-3 0 -8 -122 -65 -128 -60 -3 3 0 6 6 6 7 0 12 4 12 8 0 5 -6 9 -14 9 -7 0
-12 -7 -11 -16 2 -9 4 -29 4 -46 1 -37 39 -63 131 -91 91 -26 298 -26 390 0
458 135 835 575 947 1106 16 75 18 138 17 525 -1 481 -6 526 -70 721 -41 125
-156 349 -231 449 -131 176 -334 362 -546 499 -267 175 -676 307 -776 252z
m874 -816 c3 -5 1 -10 -4 -10 -6 0 -11 5 -11 10 0 6 2 10 4 10 3 0 8 -4 11
-10z m-160 -2209 c3 -5 2 -12 -3 -15 -5 -3 -9 1 -9 9 0 17 3 19 12 6z"/>
<path d="M3085 4100 c3 -5 -1 -11 -7 -13 -7 -3 1 -3 19 0 27 4 31 3 27 -13 -2
-11 0 -25 5 -33 8 -12 12 -13 25 -1 9 7 19 10 23 6 4 -3 -2 -13 -13 -20 -10
-8 -16 -17 -13 -21 4 -3 14 1 22 10 19 19 45 21 29 2 -8 -10 -2 -13 30 -14 23
-1 44 -7 48 -13 5 -8 9 -7 13 4 8 19 -6 28 -29 19 -12 -4 -15 -3 -10 5 5 8 1
10 -10 5 -12 -4 -15 -3 -10 5 5 8 1 10 -10 5 -10 -4 -15 -2 -11 4 6 10 -9 14
-55 14 -18 0 -28 5 -28 14 0 9 6 12 18 8 13 -4 13 -2 -3 9 -23 17 -68 30 -60
18z"/>
<path d="M3030 4089 c0 -5 5 -7 10 -4 6 3 10 8 10 11 0 2 -4 4 -10 4 -5 0 -10
-5 -10 -11z"/>
<path d="M3338 3968 c7 -9 27 -19 45 -23 22 -5 26 -9 15 -12 -14 -4 -15 -7 -5
-17 15 -15 59 -28 51 -15 -8 14 4 11 34 -8 43 -28 49 -36 44 -55 -3 -15 2 -18
29 -18 31 1 32 2 16 14 -10 8 -17 17 -15 20 6 11 -113 75 -129 69 -10 -4 -14
-2 -10 4 8 13 -13 32 -42 38 -12 2 -27 7 -34 11 -9 6 -9 4 1 -8z"/>
<path d="M3287 3956 c-4 -10 -1 -13 9 -9 7 3 14 9 14 14 0 14 -17 10 -23 -5z"/>
<path d="M3311 3936 c-9 -10 -6 -12 14 -8 29 5 31 8 11 15 -8 3 -19 0 -25 -7z"/>
<path d="M3360 3884 c0 -9 5 -14 12 -12 18 6 21 28 4 28 -9 0 -16 -7 -16 -16z"/>
<path d="M3460 3876 c0 -2 7 -7 16 -10 8 -3 12 -2 9 4 -6 10 -25 14 -25 6z"/>
<path d="M3443 3855 c0 -7 6 -11 14 -8 7 3 13 6 13 8 0 2 -6 5 -13 8 -8 3 -14
-1 -14 -8z"/>
<path d="M3604 3797 c1 -23 6 -32 19 -33 12 -1 13 -1 2 3 -8 2 -15 9 -15 14 0
12 6 11 39 -5 26 -14 70 -66 55 -66 -4 0 -1 -7 6 -15 7 -9 21 -13 31 -10 9 3
20 1 24 -5 3 -6 -4 -10 -17 -11 -15 0 -18 -3 -8 -6 8 -3 23 -12 32 -20 9 -8
22 -12 27 -8 6 3 11 2 11 -3 0 -6 7 -12 14 -15 10 -4 13 -1 9 9 -5 14 -16 18
-42 14 -9 -1 -12 4 -8 14 4 9 -3 23 -18 34 -13 11 -21 23 -17 27 4 5 1 5 -6 1
-7 -4 -10 -12 -7 -17 4 -5 2 -9 -3 -9 -16 0 -22 13 -11 26 7 8 7 14 -1 19 -5
3 -10 3 -10 -1 0 -4 -9 5 -20 18 -10 14 -33 31 -50 38 -16 7 -27 16 -25 20 3
5 2 11 -3 14 -5 3 -8 -9 -8 -27z"/>
<path d="M2410 3625 c-8 -2 -49 -9 -90 -15 -165 -27 -366 -114 -509 -220 -213
-158 -354 -395 -390 -654 -16 -111 -13 -374 4 -489 36 -238 135 -430 315 -607
126 -124 249 -209 656 -454 l162 -97 48 31 c27 17 54 28 61 26 7 -3 12 -1 10
5 -1 5 30 26 68 47 39 20 71 40 73 44 4 9 52 -12 52 -23 0 -4 -5 -10 -10 -12
-6 -3 -5 -4 2 -3 7 1 13 17 14 34 0 17 -3 29 -8 26 -5 -3 -6 -10 -3 -15 7 -10
-8 -12 -19 -2 -10 10 83 65 96 57 7 -4 8 -3 4 4 -4 8 4 16 21 23 15 6 36 17
45 26 9 8 21 12 27 9 5 -4 13 -1 17 5 4 8 3 9 -4 5 -7 -4 -12 -5 -12 -3 0 2
39 30 88 63 85 57 117 81 196 149 32 28 43 32 59 23 15 -8 18 -7 11 4 -5 7 -9
18 -10 25 -3 16 23 37 30 25 3 -6 -1 -15 -9 -22 -13 -11 -13 -14 2 -25 23 -17
38 -8 21 13 -11 12 -11 16 0 20 9 2 10 8 3 16 -6 7 0 22 19 46 30 36 53 37 28
1 -8 -12 -17 -19 -20 -16 -3 3 -11 -3 -19 -12 -13 -16 -12 -17 4 -4 9 7 17 10
17 6 0 -4 6 -3 13 4 10 7 17 7 24 0 8 -8 13 -7 18 0 3 6 1 10 -6 9 -6 -2 -14
3 -17 11 -3 10 0 11 9 5 10 -6 9 0 -3 18 -16 25 -15 38 4 38 5 0 7 -4 4 -8 -2
-4 0 -14 6 -22 8 -13 9 -12 5 1 -3 9 0 22 6 29 9 10 9 11 0 6 -19 -10 -16 8 5
35 11 13 37 57 59 97 22 39 42 70 45 67 3 -3 8 1 12 10 3 9 2 13 -4 10 -14 -9
-12 1 6 36 8 17 17 38 19 47 2 10 13 60 25 112 22 97 42 389 28 414 -4 6 -8
46 -10 88 -2 42 -6 74 -9 72 -3 -2 -12 22 -19 54 -8 31 -14 59 -15 62 -1 3 -9
22 -18 44 -20 45 -21 49 -7 41 6 -3 7 1 4 9 -3 9 -1 16 5 16 6 0 11 8 11 18 0
14 -3 13 -18 -6 l-18 -23 -23 48 c-28 57 -101 171 -125 196 -10 9 -13 17 -7
17 6 0 11 7 11 15 0 8 5 15 10 15 14 0 13 -13 -2 -29 -11 -11 -10 -12 1 -6 11
6 13 4 8 -9 -5 -11 -3 -15 5 -10 7 5 8 2 3 -7 -6 -11 -5 -11 5 -2 7 7 9 17 4
25 -5 7 -9 20 -9 28 0 17 -42 23 -52 7 -4 -6 -1 -7 7 -2 9 6 11 4 5 -4 -5 -9
-18 -2 -46 25 -42 41 -51 61 -19 44 11 -6 17 -16 14 -22 -5 -7 -2 -8 6 -3 8 5
11 4 7 -2 -4 -6 1 -17 11 -24 15 -12 16 -12 6 1 -6 8 -10 28 -9 43 2 29 -9 44
-20 27 -3 -5 -11 -10 -16 -10 -6 0 -7 5 -3 11 4 8 1 8 -12 1 -16 -8 -31 -1
-84 39 -97 74 -305 172 -430 204 -89 23 -131 27 -275 30 -93 2 -177 2 -185 0z
m1017 -290 c0 -8 -4 -12 -9 -9 -5 3 -6 10 -3 15 9 13 12 11 12 -6z m-1073
-725 c62 -124 132 -263 156 -309 37 -75 43 -83 54 -66 6 11 90 174 186 364 96
189 180 344 185 344 9 0 197 -289 245 -375 l20 -37 -42 -73 c-66 -117 -77
-137 -312 -588 -42 -80 -79 -144 -83 -143 -5 1 -9 -8 -10 -20 -1 -20 -55 -124
-147 -287 -21 -36 -40 -73 -43 -82 -8 -25 -17 -22 -30 10 -6 15 -45 90 -85
167 -41 77 -111 212 -157 300 -46 88 -110 207 -141 265 -31 58 -85 159 -120
225 -35 66 -76 144 -92 174 l-28 53 36 59 c20 32 41 56 47 52 6 -3 7 -1 3 5
-3 6 26 62 65 124 40 62 81 128 92 146 l20 34 34 -59 c18 -32 84 -159 147
-283z"/>
<path d="M3220 3496 c0 -2 9 -6 20 -9 11 -3 18 -1 14 4 -5 9 -34 13 -34 5z"/>
<path d="M3940 3470 c-6 -11 -8 -20 -6 -20 3 0 10 9 16 20 6 11 8 20 6 20 -3
0 -10 -9 -16 -20z"/>
<path d="M3215 3470 c3 -5 11 -10 16 -10 6 0 7 5 4 10 -3 6 -11 10 -16 10 -6
0 -7 -4 -4 -10z"/>
<path d="M3310 3430 c0 -7 -7 -9 -17 -5 -14 5 -15 3 -6 -5 7 -8 17 -9 28 -2
12 6 14 11 6 16 -6 4 -11 2 -11 -4z"/>
<path d="M3981 3414 c0 -11 3 -14 6 -6 3 7 2 16 -1 19 -3 4 -6 -2 -5 -13z"/>
<path d="M4006 3393 c-3 -10 -2 -31 3 -48 7 -22 10 -24 10 -9 1 11 7 26 14 34
9 11 8 11 -7 0 -18 -14 -19 -13 -12 13 7 30 1 38 -8 10z"/>
<path d="M3340 3381 c0 -5 7 -15 17 -22 15 -13 15 -12 4 9 -12 23 -21 28 -21
13z"/>
<path d="M3450 3350 c0 -5 5 -10 10 -10 6 0 10 5 10 10 0 6 -4 10 -10 10 -5 0
-10 -4 -10 -10z"/>
<path d="M4041 3334 c0 -11 3 -14 6 -6 3 7 2 16 -1 19 -3 4 -6 -2 -5 -13z"/>
<path d="M4091 3249 c11 -21 12 -32 2 -26 -5 3 -9 -9 -10 -26 -1 -31 -1 -31 9
-7 16 37 17 77 2 77 -9 0 -10 -5 -3 -18z"/>
<path d="M4115 3199 c-4 -6 -5 -12 -2 -15 2 -3 7 2 10 11 7 17 1 20 -8 4z"/>
<path d="M3523 3180 c7 -8 15 -17 18 -20 4 -3 14 -22 23 -43 8 -21 20 -36 26
-32 13 8 13 62 0 70 -5 3 -10 0 -10 -7 0 -7 -9 -3 -22 10 -19 19 -20 24 -9 31
10 7 7 9 -12 8 -21 -2 -23 -5 -14 -17z m64 -72 c2 -17 0 -19 -7 -8 -5 8 -6 18
-4 22 8 12 10 10 11 -14z"/>
<path d="M4125 3160 c3 -5 11 -10 16 -10 6 0 7 5 4 10 -3 6 -11 10 -16 10 -6
0 -7 -4 -4 -10z"/>
<path d="M4187 3029 c4 -13 8 -18 11 -10 2 7 -1 18 -6 23 -8 8 -9 4 -5 -13z"/>
<path d="M3666 2993 c-6 -20 -2 -80 5 -87 2 -2 4 20 5 50 1 57 -1 65 -10 37z"/>
<path d="M4187 2980 c-3 -11 -1 -20 4 -20 5 0 9 2 9 4 0 2 3 11 6 20 3 9 2 16
-4 16 -5 0 -12 -9 -15 -20z"/>
<path d="M4221 2894 c0 -11 3 -14 6 -6 3 7 2 16 -1 19 -3 4 -6 -2 -5 -13z"/>
<path d="M3751 2774 c0 -11 3 -14 6 -6 3 7 2 16 -1 19 -3 4 -6 -2 -5 -13z"/>
<path d="M3733 2730 c0 -25 2 -35 4 -22 2 12 2 32 0 45 -2 12 -4 2 -4 -23z"/>
<path d="M4242 2750 c0 -14 2 -19 5 -12 2 6 2 18 0 25 -3 6 -5 1 -5 -13z"/>
<path d="M3793 2640 c0 -41 2 -58 4 -37 2 20 2 54 0 75 -2 20 -4 3 -4 -38z"/>
<path d="M4243 2515 c0 -22 2 -30 4 -17 2 12 2 30 0 40 -3 9 -5 -1 -4 -23z"/>
<path d="M3787 2360 c-13 -47 -8 -110 8 -110 16 0 20 62 6 110 l-7 25 -7 -25z"/>
<path d="M3729 2328 c-3 -42 -6 -66 -13 -85 -4 -15 -3 -23 3 -23 6 0 12 -15
12 -32 2 -29 2 -30 7 -8 l5 25 8 -25 c6 -22 7 -21 8 11 1 21 -5 42 -14 49 -14
12 -14 26 2 83 2 9 0 17 -6 17 -6 0 -11 -6 -12 -12z"/>
<path d="M4241 2204 c0 -11 3 -14 6 -6 3 7 2 16 -1 19 -3 4 -6 -2 -5 -13z"/>
<path d="M4261 2204 c0 -11 3 -14 6 -6 3 7 2 16 -1 19 -3 4 -6 -2 -5 -13z"/>
<path d="M4200 2107 c0 -7 4 -17 9 -22 5 -6 11 -21 13 -35 3 -24 4 -24 15 8 8
20 8 30 2 26 -6 -3 -13 3 -16 15 -6 23 -23 29 -23 8z"/>
<path d="M3691 2094 c0 -11 3 -14 6 -6 3 7 2 16 -1 19 -3 4 -6 -2 -5 -13z"/>
<path d="M3664 2022 c8 -13 -23 -74 -34 -67 -3 2 -6 -6 -6 -17 0 -18 3 -17 23
8 25 31 30 26 12 -9 -9 -18 -9 -20 1 -10 16 15 23 90 8 99 -7 4 -8 3 -4 -4z"/>
<path d="M4175 1980 c-3 -5 -1 -10 4 -10 6 0 11 5 11 10 0 6 -2 10 -4 10 -3 0
-8 -4 -11 -10z"/>
<path d="M4196 1968 c-10 -39 -7 -44 9 -14 17 33 18 36 6 36 -5 0 -11 -10 -15
-22z"/>
<path d="M4163 1898 c1 -15 6 -23 11 -18 4 4 4 16 -2 26 -9 16 -10 14 -9 -8z"/>
<path d="M3568 1835 c-16 -21 -16 -24 -2 -36 13 -11 19 -9 35 11 20 27 25 50
9 50 -5 0 -10 -8 -11 -17 0 -16 -1 -16 -7 -1 -6 14 -9 13 -24 -7z m22 -21 c0
-8 -4 -12 -10 -9 -5 3 -10 10 -10 16 0 5 5 9 10 9 6 0 10 -7 10 -16z"/>
<path d="M4097 1820 c3 -10 11 -21 18 -24 8 -3 11 2 8 14 -3 10 -11 21 -18 24
-8 3 -11 -2 -8 -14z"/>
<path d="M3540 1791 c0 -5 5 -13 10 -16 6 -3 10 -2 10 4 0 5 -4 13 -10 16 -5
3 -10 2 -10 -4z"/>
<path d="M4036 1663 c-6 -15 -8 -15 -16 -3 -7 12 -9 11 -8 -5 0 -11 -1 -27 -4
-35 -3 -8 -3 -12 -1 -7 3 4 10 4 15 1 7 -5 8 -2 4 5 -5 7 0 21 10 32 9 10 15
22 12 24 -3 3 -9 -2 -12 -12z"/>
<path d="M3352 1598 c-5 -7 -8 -23 -6 -35 2 -12 -1 -25 -6 -28 -9 -5 -15 16
-11 38 1 5 -3 6 -9 2 -6 -3 -8 -11 -5 -16 4 -5 1 -9 -6 -9 -19 0 3 -20 28 -24
17 -4 20 1 18 27 -1 18 3 38 8 45 5 6 7 12 4 12 -2 0 -9 -6 -15 -12z"/>
<path d="M3840 1585 c0 -8 5 -15 10 -15 6 0 10 7 10 15 0 8 -4 15 -10 15 -5 0
-10 -7 -10 -15z"/>
<path d="M3270 1525 c-11 -13 -11 -18 -1 -28 10 -9 12 -8 9 8 -2 13 2 19 10
17 8 -1 11 2 7 8 -8 13 -10 13 -25 -5z"/>
<path d="M3212 1474 c-12 -8 -22 -12 -22 -7 0 4 -11 -4 -25 -19 -14 -15 -25
-32 -25 -38 0 -6 -6 -10 -12 -9 -19 3 -48 -12 -48 -24 0 -6 3 -7 6 -4 4 3 15
2 26 -4 21 -11 49 4 47 25 -1 6 2 20 6 32 5 16 13 20 33 17 20 -3 23 -2 13 5
-11 8 -10 12 7 21 11 6 29 8 39 5 15 -5 15 -4 3 5 -20 14 -22 14 -48 -5z m-87
-84 c3 -5 -1 -10 -10 -10 -9 0 -13 5 -10 10 3 6 8 10 10 10 2 0 7 -4 10 -10z"/>
<path d="M3880 1469 c0 -5 5 -7 10 -4 6 3 10 8 10 11 0 2 -4 4 -10 4 -5 0 -10
-5 -10 -11z"/>
<path d="M3240 1450 c8 -5 20 -10 25 -10 6 0 3 5 -5 10 -8 5 -19 10 -25 10 -5
0 -3 -5 5 -10z"/>
<path d="M3000 1315 c7 -9 15 -13 17 -11 7 7 -7 26 -19 26 -6 0 -6 -6 2 -15z"/>
<path d="M2974 1302 c3 -6 -2 -13 -11 -15 -16 -4 -16 -5 -1 -6 21 -1 32 15 17
25 -7 4 -9 3 -5 -4z"/>
<path d="M3604 1242 c3 -18 18 -20 24 -4 1 5 -4 12 -12 15 -9 4 -13 0 -12 -11z"/>
<path d="M2807 1209 c7 -7 15 -10 18 -7 3 3 -2 9 -12 12 -14 6 -15 5 -6 -5z"/>
<path d="M3458 1184 c12 -8 26 -12 32 -9 5 3 18 1 29 -5 25 -13 36 3 14 21 -9
8 -14 9 -10 3 4 -7 -5 -11 -23 -11 -17 0 -30 4 -30 9 0 4 -8 8 -17 8 -14 0
-13 -3 5 -16z"/>
<path d="M3440 1172 c0 -10 41 -45 46 -39 2 2 -7 13 -21 25 -14 12 -25 18 -25
14z"/>
<path d="M2765 1160 c-3 -5 -2 -10 4 -10 5 0 13 5 16 10 3 6 2 10 -4 10 -5 0
-13 -4 -16 -10z"/>
<path d="M3442 1128 c2 -9 -8 -13 -29 -13 -18 -1 -35 -4 -39 -8 -12 -11 -14
-38 -3 -31 5 3 6 10 3 16 -5 8 -1 9 10 5 10 -4 15 -3 11 3 -8 13 8 13 21 0 7
-7 16 -4 28 9 12 13 14 21 6 26 -6 4 -9 1 -8 -7z"/>
<path d="M3280 1059 c0 -5 5 -7 10 -4 6 3 10 8 10 11 0 2 -4 4 -10 4 -5 0 -10
-5 -10 -11z"/>
<path d="M3207 1033 c-3 -5 6 -9 20 -10 19 -1 22 1 12 8 -17 11 -26 11 -32 2z"/>
<path d="M1930 810 c-9 -6 -10 -10 -3 -10 6 0 15 5 18 10 8 12 4 12 -15 0z"/>
<path d="M1820 780 c-9 -6 -10 -10 -3 -10 6 0 15 5 18 10 8 12 4 12 -15 0z"/>
<path d="M1738 763 c7 -3 16 -2 19 1 4 3 -2 6 -13 5 -11 0 -14 -3 -6 -6z"/>
</g>
</svg>
